# xmcd
#
# Track frame offsets:
#	150
#	12805
#	19697
#	35955
#	46386
#	53611
#	66578
#	75606
#	86126
#	99299
#	109421
#	120315
#	131724
#	142701
#	163385
#	179030
#	190250
#	204949
#	217715
#	232927
#	241529
#	253095
#	273473
#	291634
#	313590
#	324091
#
# Disc length: 4453 seconds
#
# Revision: 0
# Processed by: cddbd v1.5.2PL0 Copyright (c) Steve Scherf et al.
# Submitted via: EasyCDDAExtractor 2011.3.0.0
#
DISCID=6f11631a
DTITLE=Dominique Jouve - Yann Goas - Hent Kozh 164
DYEAR=2011
DGENRE=Celtic
TTITLE0=Maout bihan
TTITLE1=Bibobelura
TTITLE2=Pardon gronuel
TTITLE3=La ronde à Robert
TTITLE4=Le vaublanc
TTITLE5=Un p'tit tour de vielle
TTITLE6=Saint Barnabé
TTITLE7=Mazurka du père Dartois
TTITLE8=Belle Eugénie
TTITLE9=La polka de l'apprenti joueur
TTITLE10=Daou gamerad
TTITLE11=Ker civil
TTITLE12=Charl Ar c'haz
TTITLE13=Penn ur bern plouz
TTITLE14=Sal Prigent 1
TTITLE15=Tamm kreiz Sal Prigent 2
TTITLE16=Sal Prigent 3
TTITLE17=Yannig
TTITLE18=Sec'h Blot Gelg
TTITLE19=Lannhelen
TTITLE20=Rodou kaoutchou
TTITLE21=Les scottisches à Yann
TTITLE22=Gwenedour
TTITLE23=Den yaouank koh
TTITLE24=Koste r'houet
TTITLE25=Ne chomain ket da sonjal
EXTD=
EXTT0=
EXTT1=
EXTT2=
EXTT3=
EXTT4=
EXTT5=
EXTT6=
EXTT7=
EXTT8=
EXTT9=
EXTT10=
EXTT11=
EXTT12=
EXTT13=
EXTT14=
EXTT15=
EXTT16=
EXTT17=
EXTT18=
EXTT19=
EXTT20=
EXTT21=
EXTT22=
EXTT23=
EXTT24=
EXTT25=
PLAYORDER=
